<svg width="89" height="21" viewBox="0 0 89 21" fill="none" xmlns="http://www.w3.org/2000/svg">
<rect width="89" height="21" fill="#FFBD00"/>
<path d="M15.5983 7.7C16.2283 7.7 16.7923 7.835 17.2903 8.105C17.7883 8.369 18.1783 8.741 18.4603 9.221C18.7423 9.701 18.8833 10.244 18.8833 10.85C18.8833 11.456 18.7393 11.999 18.4513 12.479C18.1693 12.953 17.7763 13.325 17.2723 13.595C16.7683 13.865 16.1953 14 15.5533 14H12.9793V7.7H15.5983ZM15.6253 12.938C16.0093 12.938 16.3543 12.851 16.6603 12.677C16.9723 12.497 17.2153 12.251 17.3893 11.939C17.5633 11.621 17.6503 11.261 17.6503 10.859C17.6503 10.457 17.5603 10.097 17.3803 9.779C17.2003 9.455 16.9513 9.206 16.6333 9.032C16.3213 8.852 15.9703 8.762 15.5803 8.762H14.1853V12.938H15.6253ZM23.7525 7.619C24.3765 7.619 24.9435 7.76 25.4535 8.042C25.9695 8.324 26.3745 8.711 26.6685 9.203C26.9625 9.695 27.1095 10.241 27.1095 10.841C27.1095 11.441 26.9625 11.99 26.6685 12.488C26.3745 12.98 25.9695 13.37 25.4535 13.658C24.9435 13.946 24.3765 14.09 23.7525 14.09C23.1285 14.09 22.5585 13.946 22.0425 13.658C21.5325 13.37 21.1305 12.98 20.8365 12.488C20.5425 11.99 20.3955 11.441 20.3955 10.841C20.3955 10.241 20.5425 9.695 20.8365 9.203C21.1305 8.711 21.5325 8.324 22.0425 8.042C22.5585 7.76 23.1285 7.619 23.7525 7.619ZM23.7705 8.699C23.3865 8.699 23.0295 8.795 22.6995 8.987C22.3695 9.173 22.1085 9.431 21.9165 9.761C21.7245 10.085 21.6285 10.445 21.6285 10.841C21.6285 11.237 21.7245 11.6 21.9165 11.93C22.1145 12.26 22.3755 12.521 22.6995 12.713C23.0295 12.905 23.3865 13.001 23.7705 13.001C24.1485 13.001 24.4995 12.905 24.8235 12.713C25.1475 12.521 25.4025 12.26 25.5885 11.93C25.7805 11.6 25.8765 11.237 25.8765 10.841C25.8765 10.445 25.7805 10.085 25.5885 9.761C25.4025 9.431 25.1475 9.173 24.8235 8.987C24.4995 8.795 24.1485 8.699 23.7705 8.699ZM36.891 7.7H38.142L36.009 14H34.758L33.318 9.221L31.851 14H30.618L28.494 7.7H29.79L31.275 12.695L32.751 7.7H33.939L35.424 12.713L36.891 7.7ZM44.4975 7.7H45.6675V14H44.5245L41.2845 9.662V14H40.1055V7.7H41.2485L44.4975 12.047V7.7ZM48.3859 7.7H49.5919V12.911H52.3099V14H48.3859V7.7ZM57.287 7.619C57.911 7.619 58.478 7.76 58.988 8.042C59.504 8.324 59.909 8.711 60.203 9.203C60.497 9.695 60.644 10.241 60.644 10.841C60.644 11.441 60.497 11.99 60.203 12.488C59.909 12.98 59.504 13.37 58.988 13.658C58.478 13.946 57.911 14.09 57.287 14.09C56.663 14.09 56.093 13.946 55.577 13.658C55.067 13.37 54.665 12.98 54.371 12.488C54.077 11.99 53.93 11.441 53.93 10.841C53.93 10.241 54.077 9.695 54.371 9.203C54.665 8.711 55.067 8.324 55.577 8.042C56.093 7.76 56.663 7.619 57.287 7.619ZM57.305 8.699C56.921 8.699 56.564 8.795 56.234 8.987C55.904 9.173 55.643 9.431 55.451 9.761C55.259 10.085 55.163 10.445 55.163 10.841C55.163 11.237 55.259 11.6 55.451 11.93C55.649 12.26 55.91 12.521 56.234 12.713C56.564 12.905 56.921 13.001 57.305 13.001C57.683 13.001 58.034 12.905 58.358 12.713C58.682 12.521 58.937 12.26 59.123 11.93C59.315 11.6 59.411 11.237 59.411 10.841C59.411 10.445 59.315 10.085 59.123 9.761C58.937 9.431 58.682 9.173 58.358 8.987C58.034 8.795 57.683 8.699 57.305 8.699ZM67.3761 14L66.8181 12.668H63.7401L63.1821 14H61.9311L64.6941 7.7H65.9451L68.6721 14H67.3761ZM64.1721 11.633H66.3861L65.2881 8.987L64.1721 11.633ZM73.2268 7.7C73.8568 7.7 74.4208 7.835 74.9188 8.105C75.4168 8.369 75.8068 8.741 76.0888 9.221C76.3708 9.701 76.5118 10.244 76.5118 10.85C76.5118 11.456 76.3678 11.999 76.0798 12.479C75.7978 12.953 75.4048 13.325 74.9008 13.595C74.3968 13.865 73.8238 14 73.1818 14H70.6078V7.7H73.2268ZM73.2538 12.938C73.6378 12.938 73.9828 12.851 74.2888 12.677C74.6008 12.497 74.8438 12.251 75.0178 11.939C75.1918 11.621 75.2788 11.261 75.2788 10.859C75.2788 10.457 75.1888 10.097 75.0088 9.779C74.8288 9.455 74.5798 9.206 74.2618 9.032C73.9498 8.852 73.5988 8.762 73.2088 8.762H71.8138V12.938H73.2538Z" fill="white"/>
</svg>
